<svg width="70" height="13" viewBox="0 0 70 13" fill="none" xmlns="http://www.w3.org/2000/svg">
<path d="M0.96 12.0482C0.864 12.0482 0.794667 12.0109 0.752 11.9362C0.709333 11.8616 0.688 11.7816 0.688 11.6962C0.698667 11.5149 0.741333 11.4136 0.816 11.3922C0.890667 11.3709 0.981333 11.3602 1.088 11.3602C1.42933 11.3602 1.66933 11.3016 1.808 11.1842C1.94667 11.0562 2.032 10.9016 2.064 10.7202C2.10667 10.5282 2.128 10.3309 2.128 10.1282V3.77624C2.128 3.57358 2.10667 3.38158 2.064 3.20024C2.032 3.00824 1.94667 2.85358 1.808 2.73624C1.66933 2.60824 1.42933 2.54424 1.088 2.54424C0.981333 2.54424 0.890667 2.53358 0.816 2.51224C0.741333 2.49091 0.698667 2.38958 0.688 2.20824C0.688 2.12291 0.709333 2.04291 0.752 1.96824C0.794667 1.89358 0.864 1.85624 0.96 1.85624C1.30133 1.86691 1.62133 1.87758 1.92 1.88824C2.22933 1.89891 2.544 1.90424 2.864 1.90424H7.488C7.60533 1.90424 7.70133 1.93091 7.776 1.98424C7.86133 2.03758 7.904 2.13891 7.904 2.28824L7.952 4.52824C7.952 4.63491 7.89867 4.71491 7.792 4.76824C7.696 4.82158 7.60533 4.84824 7.52 4.84824C7.40267 4.84824 7.29067 4.82691 7.184 4.78424C7.088 4.73091 7.02933 4.65624 7.008 4.56024C6.944 4.08024 6.85867 3.69624 6.752 3.40824C6.656 3.10958 6.50667 2.89624 6.304 2.76824C6.112 2.62958 5.82933 2.55491 5.456 2.54424H3.712V6.70424H6.576C6.66133 6.71491 6.72533 6.75758 6.768 6.83224C6.81067 6.90691 6.832 6.98691 6.832 7.07224C6.832 7.14691 6.81067 7.22158 6.768 7.29624C6.72533 7.36024 6.66133 7.39224 6.576 7.39224H3.712V10.1282C3.72267 10.3309 3.744 10.5282 3.776 10.7202C3.808 10.9016 3.89333 11.0562 4.032 11.1842C4.18133 11.3016 4.42133 11.3602 4.752 11.3602C4.85867 11.3602 4.94933 11.3709 5.024 11.3922C5.09867 11.4136 5.14133 11.5149 5.152 11.6962C5.152 11.7816 5.13067 11.8616 5.088 11.9362C5.04533 12.0109 4.97067 12.0482 4.864 12.0482C4.18133 12.0162 3.52 12.0002 2.88 12.0002C2.56 12.0002 2.24533 12.0002 1.936 12.0002C1.62667 12.0109 1.30133 12.0269 0.96 12.0482ZM12.1656 12.1922C11.3443 12.1922 10.651 12.0162 10.0856 11.6642C9.53096 11.3122 9.11496 10.8429 8.83763 10.2562C8.56029 9.66958 8.42163 9.02958 8.42163 8.33624C8.42163 7.86691 8.50163 7.41358 8.66163 6.97624C8.83229 6.52824 9.07229 6.12291 9.38163 5.76024C9.69096 5.38691 10.0643 5.09358 10.5016 4.88024C10.939 4.66691 11.435 4.56024 11.9896 4.56024C12.971 4.56024 13.707 4.81624 14.1976 5.32824C14.699 5.82958 14.987 6.46958 15.0616 7.24824C15.0616 7.62158 14.955 7.86691 14.7416 7.98424C14.539 8.10158 14.2723 8.16024 13.9416 8.16024H10.0536C10.0536 8.77891 10.139 9.33358 10.3096 9.82424C10.4803 10.3042 10.747 10.6882 11.1096 10.9762C11.483 11.2536 11.9736 11.3922 12.5816 11.3922C13.0296 11.3922 13.4136 11.2962 13.7336 11.1042C14.0536 10.9122 14.363 10.5762 14.6616 10.0962C14.747 9.98958 14.8643 9.98424 15.0136 10.0802C15.099 10.1229 15.1523 10.1922 15.1736 10.2882C15.195 10.3736 15.1843 10.4482 15.1416 10.5122C14.811 11.0349 14.395 11.4456 13.8936 11.7442C13.3923 12.0429 12.8163 12.1922 12.1656 12.1922ZM10.0536 7.55224H12.6616C12.9176 7.55224 13.1203 7.50424 13.2696 7.40824C13.4296 7.30158 13.515 7.12558 13.5256 6.88024C13.5256 6.42158 13.3976 6.01624 13.1416 5.66424C12.8963 5.30158 12.5123 5.12024 11.9896 5.12024C11.4563 5.12024 11.0083 5.33358 10.6456 5.76024C10.2936 6.18691 10.0963 6.78424 10.0536 7.55224ZM16.5809 12.0482C16.5062 12.0482 16.4422 12.0162 16.3889 11.9522C16.3462 11.8776 16.3249 11.8029 16.3249 11.7282C16.3462 11.5682 16.3889 11.4829 16.4529 11.4722C16.5169 11.4509 16.6022 11.4402 16.7089 11.4402C17.0075 11.4402 17.2102 11.3922 17.3169 11.2962C17.4235 11.1896 17.4822 11.0509 17.4929 10.8802C17.5142 10.7096 17.5249 10.5336 17.5249 10.3522V6.68824C17.5249 6.49624 17.5142 6.32024 17.4929 6.16024C17.4822 5.98958 17.4235 5.85624 17.3169 5.76024C17.2102 5.65358 17.0075 5.60024 16.7089 5.60024C16.6129 5.60024 16.5222 5.58958 16.4369 5.56824C16.3622 5.53624 16.3249 5.44024 16.3249 5.28024C16.3249 5.12024 16.4102 5.02424 16.5809 4.99224C17.0715 4.91758 17.4449 4.84291 17.7009 4.76824C17.9675 4.69358 18.1702 4.62958 18.3089 4.57624C18.4475 4.52291 18.5702 4.49091 18.6769 4.48024C18.7622 4.46958 18.8315 4.48558 18.8849 4.52824C18.9489 4.57091 18.9809 4.65624 18.9809 4.78424V10.3522C18.9809 10.5336 18.9862 10.7096 18.9969 10.8802C19.0182 11.0509 19.0822 11.1896 19.1889 11.2962C19.3062 11.3922 19.5142 11.4402 19.8129 11.4402C19.9089 11.4402 19.9889 11.4509 20.0529 11.4722C20.1275 11.4829 20.1702 11.5682 20.1809 11.7282C20.1809 11.8029 20.1595 11.8776 20.1169 11.9522C20.0742 12.0162 20.0102 12.0482 19.9249 12.0482C19.6155 12.0269 19.3275 12.0109 19.0609 12.0002C18.8049 12.0002 18.5329 12.0002 18.2449 12.0002C17.9569 12.0002 17.6849 12.0002 17.4289 12.0002C17.1729 12.0109 16.8902 12.0269 16.5809 12.0482ZM18.1649 2.70424C17.8662 2.70424 17.6155 2.61358 17.4129 2.43224C17.2102 2.24024 17.1089 2.00558 17.1089 1.72824C17.1089 1.48291 17.2315 1.26424 17.4769 1.07224C17.7222 0.880244 17.9995 0.784244 18.3089 0.784244C18.5755 0.784244 18.7942 0.880244 18.9649 1.07224C19.1355 1.25358 19.2209 1.48824 19.2209 1.77624C19.2209 2.03224 19.1195 2.25091 18.9169 2.43224C18.7142 2.61358 18.4635 2.70424 18.1649 2.70424ZM23.9248 12.2722C23.6048 12.2722 23.3008 12.1922 23.0128 12.0322C22.7248 11.8722 22.4848 11.6269 22.2928 11.2962C22.1114 10.9656 22.0208 10.5496 22.0208 10.0482V5.34424L21.0928 5.37624C21.0181 5.37624 20.9594 5.34958 20.9168 5.29624C20.8848 5.23224 20.8688 5.16291 20.8688 5.08824C20.8688 4.87491 20.9434 4.75224 21.0928 4.72024C21.4874 4.64558 21.7861 4.52291 21.9888 4.35224C22.1914 4.17091 22.3461 3.95758 22.4528 3.71224C22.5701 3.46691 22.6768 3.20024 22.7728 2.91224C22.8048 2.82691 22.8528 2.77358 22.9168 2.75224C22.9808 2.72024 23.0501 2.70424 23.1248 2.70424C23.1888 2.70424 23.2581 2.72024 23.3328 2.75224C23.4181 2.78424 23.4608 2.84291 23.4608 2.92824L23.3488 4.75224L25.2208 4.64024C25.3168 4.62958 25.3808 4.65624 25.4128 4.72024C25.4448 4.78424 25.4608 4.85891 25.4608 4.94424C25.4608 5.05091 25.4394 5.15758 25.3968 5.26424C25.3648 5.37091 25.3221 5.42424 25.2688 5.42424L23.4768 5.37624V10.2402C23.4768 10.5496 23.5408 10.8322 23.6688 11.0882C23.8074 11.3442 24.0528 11.4722 24.4048 11.4722C24.5221 11.4722 24.6554 11.4616 24.8048 11.4402C24.9541 11.4189 25.1141 11.3709 25.2848 11.2962C25.3274 11.2749 25.3701 11.2589 25.4128 11.2482C25.4554 11.2269 25.4981 11.2162 25.5408 11.2162C25.6261 11.2162 25.6901 11.2536 25.7328 11.3282C25.7754 11.3922 25.8128 11.4616 25.8448 11.5362C25.8768 11.6322 25.8501 11.7069 25.7648 11.7602C25.4341 11.9736 25.1301 12.1122 24.8528 12.1762C24.5754 12.2402 24.2661 12.2722 23.9248 12.2722ZM30.9153 12.1922C30.1686 12.1922 29.5126 12.0162 28.9473 11.6642C28.3926 11.3122 27.9606 10.8536 27.6513 10.2882C27.3419 9.72291 27.1873 9.12024 27.1873 8.48024C27.1873 7.85091 27.2993 7.29091 27.5233 6.80024C27.7473 6.30958 28.0406 5.89891 28.4033 5.56824C28.7766 5.23758 29.1819 4.98691 29.6193 4.81624C30.0566 4.64558 30.4886 4.56024 30.9153 4.56024C31.6619 4.56024 32.3126 4.73624 32.8673 5.08824C33.4326 5.44024 33.8699 5.89891 34.1793 6.46424C34.4886 7.02958 34.6433 7.63224 34.6433 8.27224C34.6433 8.90158 34.5259 9.46158 34.2913 9.95224C34.0673 10.4429 33.7686 10.8536 33.3953 11.1842C33.0326 11.5149 32.6326 11.7656 32.1953 11.9362C31.7579 12.1069 31.3313 12.1922 30.9153 12.1922ZM30.9153 11.6002C31.4379 11.6002 31.8486 11.4456 32.1473 11.1362C32.4566 10.8269 32.6753 10.4216 32.8033 9.92024C32.9419 9.40824 33.0113 8.85891 33.0113 8.27224C33.0113 7.70691 32.9419 7.18958 32.8033 6.72024C32.6646 6.25091 32.4406 5.87224 32.1313 5.58424C31.8219 5.29624 31.4166 5.15224 30.9153 5.15224C30.3926 5.15224 29.9766 5.30691 29.6673 5.61624C29.3579 5.91491 29.1393 6.31491 29.0113 6.81624C28.8833 7.30691 28.8193 7.85091 28.8193 8.44824C28.8193 9.00291 28.8833 9.52024 29.0113 10.0002C29.1499 10.4802 29.3739 10.8696 29.6833 11.1682C29.9926 11.4562 30.4033 11.6002 30.9153 11.6002ZM43.0034 12.1922C41.9047 12.1922 41.046 11.8456 40.4274 11.1522C39.8194 10.4482 39.5154 9.52024 39.5154 8.36824C39.5474 7.63224 39.7287 6.98158 40.0594 6.41624C40.4007 5.85091 40.8487 5.40824 41.4034 5.08824C41.9687 4.75758 42.5927 4.58158 43.2754 4.56024C43.6487 4.56024 44.0274 4.60824 44.4114 4.70424C44.806 4.78958 45.1314 4.95491 45.3874 5.20024C45.654 5.43491 45.7874 5.77624 45.7874 6.22424C45.7874 6.53358 45.6914 6.82158 45.4994 7.08824C45.3074 7.34424 45.0407 7.47224 44.6994 7.47224C44.4647 7.47224 44.2834 7.41358 44.1554 7.29624C44.0274 7.17891 43.9634 7.09358 43.9634 7.04024C43.9634 7.01891 44.006 6.97624 44.0914 6.91224C44.1874 6.83758 44.278 6.74158 44.3634 6.62424C44.4487 6.49624 44.4914 6.34158 44.4914 6.16024C44.4914 5.81891 44.3687 5.56824 44.1234 5.40824C43.878 5.24824 43.6007 5.16291 43.2914 5.15224C42.822 5.15224 42.4434 5.24824 42.1554 5.44024C41.878 5.63224 41.6647 5.88824 41.5154 6.20824C41.366 6.51758 41.2647 6.85891 41.2114 7.23224C41.1687 7.60558 41.1474 7.96824 41.1474 8.32024C41.1474 8.90691 41.238 9.43491 41.4194 9.90424C41.6007 10.3629 41.8567 10.7256 42.1874 10.9922C42.518 11.2589 42.9127 11.3922 43.3714 11.3922C43.8407 11.3922 44.2354 11.2909 44.5554 11.0882C44.8754 10.8856 45.1687 10.5869 45.4354 10.1922C45.51 10.0856 45.622 10.0749 45.7714 10.1602C45.846 10.2029 45.8994 10.2616 45.9314 10.3362C45.9634 10.4109 45.9527 10.4856 45.8994 10.5602C45.5474 11.0616 45.11 11.4616 44.5874 11.7602C44.0647 12.0482 43.5367 12.1922 43.0034 12.1922ZM50.8371 12.1922C50.0905 12.1922 49.4345 12.0162 48.8691 11.6642C48.3145 11.3122 47.8825 10.8536 47.5731 10.2882C47.2638 9.72291 47.1091 9.12024 47.1091 8.48024C47.1091 7.85091 47.2211 7.29091 47.4451 6.80024C47.6691 6.30958 47.9625 5.89891 48.3251 5.56824C48.6985 5.23758 49.1038 4.98691 49.5411 4.81624C49.9785 4.64558 50.4105 4.56024 50.8371 4.56024C51.5838 4.56024 52.2345 4.73624 52.7891 5.08824C53.3545 5.44024 53.7918 5.89891 54.1011 6.46424C54.4105 7.02958 54.5651 7.63224 54.5651 8.27224C54.5651 8.90158 54.4478 9.46158 54.2131 9.95224C53.9891 10.4429 53.6905 10.8536 53.3171 11.1842C52.9545 11.5149 52.5545 11.7656 52.1171 11.9362C51.6798 12.1069 51.2531 12.1922 50.8371 12.1922ZM50.8371 11.6002C51.3598 11.6002 51.7705 11.4456 52.0691 11.1362C52.3785 10.8269 52.5971 10.4216 52.7251 9.92024C52.8638 9.40824 52.9331 8.85891 52.9331 8.27224C52.9331 7.70691 52.8638 7.18958 52.7251 6.72024C52.5865 6.25091 52.3625 5.87224 52.0531 5.58424C51.7438 5.29624 51.3385 5.15224 50.8371 5.15224C50.3145 5.15224 49.8985 5.30691 49.5891 5.61624C49.2798 5.91491 49.0611 6.31491 48.9331 6.81624C48.8051 7.30691 48.7411 7.85091 48.7411 8.44824C48.7411 9.00291 48.8051 9.52024 48.9331 10.0002C49.0718 10.4802 49.2958 10.8696 49.6051 11.1682C49.9145 11.4562 50.3251 11.6002 50.8371 11.6002ZM55.925 12.0482C55.8503 12.0482 55.7863 12.0162 55.733 11.9522C55.6903 11.8776 55.669 11.8029 55.669 11.7282C55.6797 11.5682 55.717 11.4829 55.781 11.4722C55.8557 11.4509 55.941 11.4402 56.037 11.4402C56.3357 11.4402 56.5383 11.3922 56.645 11.2962C56.7623 11.1896 56.8263 11.0509 56.837 10.8802C56.8583 10.7096 56.869 10.5336 56.869 10.3522V6.68824C56.869 6.49624 56.8583 6.32024 56.837 6.16024C56.8263 5.98958 56.7677 5.85624 56.661 5.76024C56.5543 5.65358 56.3517 5.60024 56.053 5.60024C55.957 5.60024 55.8663 5.58958 55.781 5.56824C55.7063 5.53624 55.669 5.44024 55.669 5.28024C55.669 5.12024 55.7543 5.02424 55.925 4.99224C56.4157 4.91758 56.789 4.84291 57.045 4.76824C57.3117 4.69358 57.509 4.62958 57.637 4.57624C57.7757 4.52291 57.8983 4.49091 58.005 4.48024C58.0903 4.46958 58.1597 4.48558 58.213 4.52824C58.277 4.57091 58.309 4.65624 58.309 4.78424V5.79224H58.357C58.5703 5.58958 58.7783 5.39758 58.981 5.21624C59.1837 5.02424 59.429 4.86958 59.717 4.75224C60.005 4.62424 60.373 4.56024 60.821 4.56024C61.3437 4.56024 61.7917 4.67224 62.165 4.89624C62.5383 5.10958 62.8103 5.40824 62.981 5.79224H63.013C63.2263 5.58958 63.4503 5.39758 63.685 5.21624C63.9197 5.02424 64.197 4.86958 64.517 4.75224C64.837 4.62424 65.221 4.56024 65.669 4.56024C66.3943 4.56024 66.9703 4.77891 67.397 5.21624C67.8237 5.65358 68.037 6.22958 68.037 6.94424V10.3522C68.037 10.5336 68.0423 10.7096 68.053 10.8802C68.0743 11.0509 68.1383 11.1896 68.245 11.2962C68.3623 11.3922 68.5703 11.4402 68.869 11.4402C68.965 11.4402 69.045 11.4509 69.109 11.4722C69.1837 11.4829 69.2263 11.5682 69.237 11.7282C69.237 11.8029 69.2157 11.8776 69.173 11.9522C69.1303 12.0162 69.0663 12.0482 68.981 12.0482C68.6717 12.0269 68.3837 12.0109 68.117 12.0002C67.861 12.0002 67.589 12.0002 67.301 12.0002C67.013 12.0002 66.741 12.0002 66.485 12.0002C66.229 12.0109 65.9463 12.0269 65.637 12.0482C65.5517 12.0482 65.4877 12.0162 65.445 11.9522C65.4023 11.8776 65.381 11.8029 65.381 11.7282C65.3917 11.5682 65.429 11.4829 65.493 11.4722C65.5677 11.4509 65.653 11.4402 65.749 11.4402C66.0477 11.4402 66.2503 11.3922 66.357 11.2962C66.4743 11.1896 66.5383 11.0509 66.549 10.8802C66.5703 10.7096 66.581 10.5336 66.581 10.3522V6.96024C66.581 6.60824 66.501 6.32024 66.341 6.09624C66.1917 5.87224 65.9997 5.70691 65.765 5.60024C65.5303 5.49358 65.2903 5.44024 65.045 5.44024C64.6823 5.44024 64.373 5.50958 64.117 5.64824C63.861 5.77624 63.6583 5.92558 63.509 6.09624C63.3597 6.26691 63.253 6.41624 63.189 6.54424V10.3522C63.189 10.5336 63.189 10.7096 63.189 10.8802C63.1997 11.0509 63.253 11.1896 63.349 11.2962C63.4557 11.3922 63.6583 11.4402 63.957 11.4402C64.0637 11.4402 64.149 11.4509 64.213 11.4722C64.277 11.4829 64.3143 11.5682 64.325 11.7282C64.325 11.8029 64.3037 11.8776 64.261 11.9522C64.2183 12.0162 64.1543 12.0482 64.069 12.0482C63.7597 12.0269 63.4823 12.0109 63.237 12.0002C62.9917 12.0002 62.725 12.0002 62.437 12.0002C62.1597 12.0002 61.8983 12.0002 61.653 12.0002C61.4183 12.0109 61.1463 12.0269 60.837 12.0482C60.7517 12.0482 60.6877 12.0162 60.645 11.9522C60.6023 11.8776 60.581 11.8029 60.581 11.7282C60.5917 11.5682 60.629 11.4829 60.693 11.4722C60.757 11.4509 60.8423 11.4402 60.949 11.4402C61.2477 11.4402 61.445 11.3922 61.541 11.2962C61.6477 11.1896 61.701 11.0509 61.701 10.8802C61.7117 10.7096 61.717 10.5336 61.717 10.3522V6.96024C61.717 6.42691 61.557 6.04291 61.237 5.80824C60.917 5.56291 60.5703 5.44024 60.197 5.44024C59.8237 5.44024 59.509 5.50958 59.253 5.64824C58.997 5.77624 58.7943 5.92558 58.645 6.09624C58.4957 6.26691 58.389 6.41624 58.325 6.54424V10.3522C58.325 10.5336 58.3303 10.7096 58.341 10.8802C58.3623 11.0509 58.4263 11.1896 58.533 11.2962C58.6503 11.3922 58.8583 11.4402 59.157 11.4402C59.253 11.4402 59.333 11.4509 59.397 11.4722C59.4717 11.4829 59.5143 11.5682 59.525 11.7282C59.525 11.8029 59.5037 11.8776 59.461 11.9522C59.4183 12.0162 59.3543 12.0482 59.269 12.0482C58.9597 12.0269 58.6717 12.0109 58.405 12.0002C58.149 12.0002 57.877 12.0002 57.589 12.0002C57.301 12.0002 57.029 12.0002 56.773 12.0002C56.517 12.0109 56.2343 12.0269 55.925 12.0482Z" fill="#333333"/>
</svg>
